name ./resultDataOpenSim/trcMotMarkerGrf/sub09/grf-02-01.mot
datacolumns 19
datarows 30
range 1.45600000 1.57200000
endheader

                time	     ground_force_vx	     ground_force_vy	     ground_force_vz	     ground_force_px	     ground_force_py	     ground_force_pz	   l_ground_force_vx	   l_ground_force_vy	   l_ground_force_vz	   l_ground_force_px	   l_ground_force_py	   l_ground_force_pz	     ground_torque_x	     ground_torque_y	     ground_torque_z	   l_ground_torque_x	   l_ground_torque_y	   l_ground_torque_z	
          1.45600000	        -45.55766505	        472.24299407	        -17.72966369	          0.97563203	          0.00000000	          0.07472806	          0.00000000	          0.00000000	          0.00000000	          0.00000000	          0.00000000	          0.00000000	          0.00000000	          1.14674221	          0.00000000	          0.00000000	          0.00000000	          0.00000000	
          1.46000000	        -41.25119180	        467.32316676	        -17.47958716	          0.97595884	          0.00000000	          0.07472954	          0.00000000	          0.00000000	          0.00000000	          0.00000000	          0.00000000	          0.00000000	          0.00000000	          1.14624676	          0.00000000	          0.00000000	          0.00000000	          0.00000000	
          1.46400000	        -35.91109380	        462.58669584	        -15.88481807	          0.97608916	          0.00000000	          0.07465795	          0.00000000	          0.00000000	          0.00000000	          0.00000000	          0.00000000	          0.00000000	          0.00000000	          1.17120968	          0.00000000	          0.00000000	          0.00000000	          0.00000000	
          1.46800000	        -30.56500726	        457.99780893	        -13.32012181	          0.97617724	          0.00000000	          0.07451056	          0.00000000	          0.00000000	          0.00000000	          0.00000000	          0.00000000	          0.00000000	          0.00000000	          1.23767618	          0.00000000	          0.00000000	          0.00000000	          0.00000000	
          1.47200000	        -26.24390239	        453.56428613	        -10.30453908	          0.97638683	          0.00000000	          0.07428586	          0.00000000	          0.00000000	          0.00000000	          0.00000000	          0.00000000	          0.00000000	          0.00000000	          1.35696219	          0.00000000	          0.00000000	          0.00000000	          0.00000000	
          1.47600000	        -23.71228426	        449.33150937	         -7.38908411	          0.97685256	          0.00000000	          0.07398395	          0.00000000	          0.00000000	          0.00000000	          0.00000000	          0.00000000	          0.00000000	          0.00000000	          1.53262952	          0.00000000	          0.00000000	          0.00000000	          0.00000000	
          1.48000000	        -23.25847968	        445.34361961	         -5.06021209	          0.97762715	          0.00000000	          0.07361859	          0.00000000	          0.00000000	          0.00000000	          0.00000000	          0.00000000	          0.00000000	          0.00000000	          1.75679806	          0.00000000	          0.00000000	          0.00000000	          0.00000000	
          1.48400000	        -24.60826978	        441.61887016	         -3.66328595	          0.97868313	          0.00000000	          0.07321721	          0.00000000	          0.00000000	          0.00000000	          0.00000000	          0.00000000	          0.00000000	          0.00000000	          2.00848819	          0.00000000	          0.00000000	          0.00000000	          0.00000000	
          1.48800000	        -26.99858323	        438.16814853	         -3.35303309	          0.97990417	          0.00000000	          0.07281259	          0.00000000	          0.00000000	          0.00000000	          0.00000000	          0.00000000	          0.00000000	          0.00000000	          2.25696422	          0.00000000	          0.00000000	          0.00000000	          0.00000000	
          1.49200000	        -29.40225242	        435.02140382	         -4.07437975	          0.98112526	          0.00000000	          0.07243306	          0.00000000	          0.00000000	          0.00000000	          0.00000000	          0.00000000	          0.00000000	          0.00000000	          2.47050142	          0.00000000	          0.00000000	          0.00000000	          0.00000000	
          1.49600000	        -30.83296206	        432.22974333	         -5.57130618	          0.98216510	          0.00000000	          0.07209407	          0.00000000	          0.00000000	          0.00000000	          0.00000000	          0.00000000	          0.00000000	          0.00000000	          2.62731108	          0.00000000	          0.00000000	          0.00000000	          0.00000000	
          1.50000000	        -30.62282948	        429.85385462	         -7.43418317	          0.98289335	          0.00000000	          0.07179749	          0.00000000	          0.00000000	          0.00000000	          0.00000000	          0.00000000	          0.00000000	          0.00000000	          2.72336729	          0.00000000	          0.00000000	          0.00000000	          0.00000000	
          1.50400000	        -28.58304309	        427.96341309	         -9.19090419	          0.98325104	          0.00000000	          0.07153880	          0.00000000	          0.00000000	          0.00000000	          0.00000000	          0.00000000	          0.00000000	          0.00000000	          2.77329006	          0.00000000	          0.00000000	          0.00000000	          0.00000000	
          1.50800000	        -25.01568246	        426.65133100	        -10.41793762	          0.98328692	          0.00000000	          0.07130504	          0.00000000	          0.00000000	          0.00000000	          0.00000000	          0.00000000	          0.00000000	          0.00000000	          2.80437416	          0.00000000	          0.00000000	          0.00000000	          0.00000000	
          1.51200000	        -20.59789309	        426.04397786	        -10.83215896	          0.98310775	          0.00000000	          0.07107744	          0.00000000	          0.00000000	          0.00000000	          0.00000000	          0.00000000	          0.00000000	          0.00000000	          2.84743862	          0.00000000	          0.00000000	          0.00000000	          0.00000000	
          1.51600000	        -16.17260934	        426.29250894	        -10.33589589	          0.98285238	          0.00000000	          0.07083314	          0.00000000	          0.00000000	          0.00000000	          0.00000000	          0.00000000	          0.00000000	          0.00000000	          2.92885258	          0.00000000	          0.00000000	          0.00000000	          0.00000000	
          1.52000000	        -12.50066263	        427.53904344	         -9.01382301	          0.98265525	          0.00000000	          0.07055741	          0.00000000	          0.00000000	          0.00000000	          0.00000000	          0.00000000	          0.00000000	          0.00000000	          3.06590080	          0.00000000	          0.00000000	          0.00000000	          0.00000000	
          1.52400000	        -10.05744862	        429.86556090	         -7.09539882	          0.98259663	          0.00000000	          0.07024500	          0.00000000	          0.00000000	          0.00000000	          0.00000000	          0.00000000	          0.00000000	          0.00000000	          3.26495797	          0.00000000	          0.00000000	          0.00000000	          0.00000000	
          1.52800000	         -8.92951653	        433.25273480	         -4.89814523	          0.98269348	          0.00000000	          0.06990243	          0.00000000	          0.00000000	          0.00000000	          0.00000000	          0.00000000	          0.00000000	          0.00000000	          3.52095523	          0.00000000	          0.00000000	          0.00000000	          0.00000000	
          1.53200000	         -8.81276371	        437.57998326	         -2.76913772	          0.98291839	          0.00000000	          0.06954847	          0.00000000	          0.00000000	          0.00000000	          0.00000000	          0.00000000	          0.00000000	          0.00000000	          3.81760151	          0.00000000	          0.00000000	          0.00000000	          0.00000000	
          1.53600000	         -9.09286093	        442.66733758	         -1.03515137	          0.98318680	          0.00000000	          0.06920893	          0.00000000	          0.00000000	          0.00000000	          0.00000000	          0.00000000	          0.00000000	          0.00000000	          4.12934533	          0.00000000	          0.00000000	          0.00000000	          0.00000000	
          1.54000000	         -8.99952641	        448.31939315	          0.04343183	          0.98338818	          0.00000000	          0.06891179	          0.00000000	          0.00000000	          0.00000000	          0.00000000	          0.00000000	          0.00000000	          0.00000000	          4.42641034	          0.00000000	          0.00000000	          0.00000000	          0.00000000	
          1.54400000	         -7.81849000	        454.35413887	          0.31852901	          0.98341433	          0.00000000	          0.06867443	          0.00000000	          0.00000000	          0.00000000	          0.00000000	          0.00000000	          0.00000000	          0.00000000	          4.68276123	          0.00000000	          0.00000000	          0.00000000	          0.00000000	
          1.54800000	         -5.10120290	        460.63391304	         -0.21172267	          0.98320381	          0.00000000	          0.06850021	          0.00000000	          0.00000000	          0.00000000	          0.00000000	          0.00000000	          0.00000000	          0.00000000	          4.88453286	          0.00000000	          0.00000000	          0.00000000	          0.00000000	
          1.55200000	         -0.79599266	        467.09272925	         -1.39697320	          0.98277271	          0.00000000	          0.06838154	          0.00000000	          0.00000000	          0.00000000	          0.00000000	          0.00000000	          0.00000000	          0.00000000	          5.03516567	          0.00000000	          0.00000000	          0.00000000	          0.00000000	
          1.55600000	          4.74164688	        473.73920669	         -2.96324681	          0.98218772	          0.00000000	          0.06830135	          0.00000000	          0.00000000	          0.00000000	          0.00000000	          0.00000000	          0.00000000	          0.00000000	          5.15450066	          0.00000000	          0.00000000	          0.00000000	          0.00000000	
          1.56000000	         10.85535989	        480.63883314	         -4.57086654	          0.98155200	          0.00000000	          0.06823438	          0.00000000	          0.00000000	          0.00000000	          0.00000000	          0.00000000	          0.00000000	          0.00000000	          5.27199119	          0.00000000	          0.00000000	          0.00000000	          0.00000000	
          1.56400000	         16.77538080	        487.89432733	         -5.88703573	          0.98099419	          0.00000000	          0.06815423	          0.00000000	          0.00000000	          0.00000000	          0.00000000	          0.00000000	          0.00000000	          0.00000000	          5.41711036	          0.00000000	          0.00000000	          0.00000000	          0.00000000	
          1.56800000	         21.83465203	        495.62731073	         -6.65136038	          0.98061608	          0.00000000	          0.06804111	          0.00000000	          0.00000000	          0.00000000	          0.00000000	          0.00000000	          0.00000000	          0.00000000	          5.61105546	          0.00000000	          0.00000000	          0.00000000	          0.00000000	
          1.57200000	         25.64466762	        503.95090228	         -6.71486140	          0.98046346	          0.00000000	          0.06788401	          0.00000000	          0.00000000	          0.00000000	          0.00000000	          0.00000000	          0.00000000	          0.00000000	          5.86248275	          0.00000000	          0.00000000	          0.00000000	          0.00000000	
